<svg xmlns="http://www.w3.org/2000/svg" xmlns:xlink="http://www.w3.org/1999/xlink" xmlns:sodipodi="http://inkscape.sourceforge.net/DTD/sodipodi-0.dtd" width="800" height="600" sodipodi:version=".32" version="1" sodipodi:docbase="/home/nicu/Desktop/w" sodipodi:docname="wb00.svg"><defs><linearGradient id="d"><stop offset="0" stop-color="#fff"/><stop offset=".911" stop-color="#fff" stop-opacity=".393"/><stop offset="1" stop-color="#fff" stop-opacity="0"/></linearGradient><linearGradient id="b"><stop offset="0" stop-color="#fff"/><stop offset="1" stop-color="#fff" stop-opacity="0"/></linearGradient><linearGradient id="c"><stop offset="0" stop-color="#fff"/><stop offset="1" stop-color="#fff" stop-opacity="0"/></linearGradient><linearGradient id="a"><stop offset="0" stop-opacity="0"/><stop offset="1" stop-opacity=".839"/></linearGradient><radialGradient xlink:href="#a" id="h" gradientUnits="userSpaceOnUse" gradientTransform="matrix(1.708 -.11 .094 1.459 -36.345 -27.071)" cx="38.716" cy="68.228" fx="38.716" fy="68.228" r="55.784"/><linearGradient xlink:href="#b" id="i" gradientUnits="userSpaceOnUse" x1="62.012" y1="-13.724" x2="61.416" y2="60.077"/><radialGradient xlink:href="#c" id="j" gradientUnits="userSpaceOnUse" gradientTransform="matrix(.596 -.102 .194 1.133 -7.08 -9.87)" cx="30.565" cy="99.903" fx="30.565" fy="99.903" r="11.547"/><radialGradient xlink:href="#d" id="g" cx="400.972" cy="448.245" fx="400.972" fy="448.245" r="194.28" gradientTransform="matrix(1 0 0 .348 11.389 288.111)" gradientUnits="userSpaceOnUse"/><radialGradient xlink:href="#e" id="f" cx="497.123" cy="511.4" fx="497.123" fy="511.4" r="400" gradientTransform="matrix(1.227 .011 -.008 .909 -99.22 -15.36)" gradientUnits="userSpaceOnUse"/><linearGradient id="e"><stop offset="0" stop-color="#478ec1"/><stop offset="1" stop-color="#003b64"/></linearGradient></defs><sodipodi:namedview pagecolor="#ffffff" bordercolor="#666666" borderopacity="1"/><g><path fill="url(#f)" stroke-width="3" stroke-linecap="round" stroke-linejoin="round" d="M0 0h800v600H0z"/><path sodipodi:type="arc" sodipodi:cx="412.362" sodipodi:cy="443.911" sodipodi:rx="194.28" sodipodi:ry="67.528" d="M606.642 443.91a194.28 67.528 0 1 1-388.56 0 194.28 67.528 0 1 1 388.56 0z" transform="matrix(.775 0 0 1.137 335.8 -28.106)" opacity=".355" fill="url(#g)" stroke-width="3" stroke-linecap="round" stroke-linejoin="round"/><g><path d="M709.113 457.737c-26.587.233-60.893 11.92-73.75 25.15-7.496 7.966-16.1 15.998-22.85 23.93-1.412 3.872 9.423 2.708 15.22 2.848 19.226-.505 36.972 1.88 58.598-2.362 28.252-5.247 54.338-19.676 57.356-31.768 3.34-10.835-11.117-18.423-34.573-17.798z" opacity=".067"/><path d="M709.44 457.368c-26.928.226-61.81 12.12-74.794 25.5-7.505 8.002-16.263 16.115-22.942 24.058-1.506 4.026 9.395 3.06 15.64 3.107 19.334-.495 37.26 1.875 58.98-2.392 27.956-5.206 54.235-19.405 57.918-31.523 4.272-11.34-10.548-19.405-34.803-18.75z" opacity=".067"/><path d="M709.733 457c-26.758.238-61.495 11.862-75.072 25.16-7.928 8.28-16.797 16.632-23.766 24.875-1.56 3.94 8.54 3.532 15.01 3.362 18.143-.466 34.705 1.52 54.59-1.428 28.844-4.154 57.91-18.378 63.76-31.083 6.685-12.384-8.643-21.65-34.52-20.888z" opacity=".067"/><path d="M710.058 456.63c-26.588.23-61.294 11.678-75.335 24.805-8.452 8.45-16.943 16.998-24.535 25.404-1.994 3.83 6.385 4.367 13.286 3.917 17.528-.375 34.037 1.18 52.566-.825 28.783-3.303 59.746-17.01 67.846-30.115 9.35-13.376-6.014-24.048-33.828-23.187z" opacity=".067"/><path d="M710.304 456.277c-27.935.23-64.335 12.636-77.778 26.533-7.603 8.065-16.292 16.227-23.177 24.235-1.757 3.66 5.72 4.602 12.7 4.06 17.075-.31 32.91.956 50.868-.495 27.592-2.55 58.998-15.143 69.586-28.047 12.63-13.888-.108-26.05-27.555-26.29-1.527-.02-3.06-.04-4.646.004z" opacity=".067"/><path d="M710.662 455.908c-28.507.29-65.052 12.73-78.853 26.883-7.6 8.09-16.438 16.32-23.24 24.332-2.058 4.08 6.542 4.88 14.14 4.356 17.71-.38 33.984 1.19 52.918-.824 28.462-3.258 59.217-16.393 68.784-29.53 11.515-14.42-3.968-26.113-33.75-25.216z" opacity=".067"/><path d="M710.956 455.54c-26.98.287-61.648 11.4-77.072 24.728-9.222 8.648-17.094 17.34-25.51 26-3.21 3.884 2.668 6.183 10.484 5.564 16.458-.127 32.227.546 49.164-.132 27.89-1.682 60.767-13.645 73.897-26.983 13.945-13.208 6.517-25.81-16.708-28.517-4.31-.533-9.164-.768-14.256-.66z" opacity=".067"/><path d="M711.328 455.123c-8.647.172-18.127 1.303-27.527 3.312-4.838 1.02-9.695 2.273-14.332 3.734-4.295 1.314-8.466 2.81-12.412 4.4-3.746 1.535-7.3 3.172-10.572 4.905-6.678 3.5-12.164 7.348-16.147 11.222-3.887 3.922-7.62 7.845-11.447 11.768-3.69 3.827-7.46 7.655-11.103 11.482-1.245 1.418-1.523 2.833-.743 3.91.78 1.06 2.42 1.857 4.83 2.18 2.388.323 5.345.16 8.036.218 13.284.048 26.54.126 39.84.156 7.734-.043 16.172-.84 24.7-2.4 5.152-.935 10.322-2.132 15.37-3.55 4.207-1.23 8.423-2.567 12.384-4.078 6.396-2.36 12.255-5.128 17.39-8.045 5.926-3.394 10.764-7.046 14.2-10.697 4.31-4.532 6.43-9.06 6.06-13.078-.16-2.593-1.417-4.952-3.536-7.014-2.32-2.24-5.667-4.138-10.06-5.508-6.494-2.144-15.215-3.116-24.93-2.917z" opacity=".067"/><path d="M711.607 454.802c-27.252.323-62 11.284-78.236 24.658-9.738 8.7-17.15 17.467-25.967 26.193-4.36 4.318 1.094 7.568 10.01 6.913 16.517-.113 32.392.51 49.328-.083 27.92-1.522 61.26-13.263 75.427-26.62 15.19-13.41 9.185-26.63-13.496-30.02-5.06-.83-10.843-1.167-17.063-1.04z" opacity=".067"/><path d="M711.932 454.433c-29.496.33-67.178 12.947-82.23 27.56-8.04 8.448-17.245 17.02-24.28 25.405-2.355 4.484 5.93 6.242 14.84 5.55 17.83-.366 34.28 1.136 53.27-.726 30.93-3.162 64.865-17.688 74.443-31.97 11.016-14.568-4.817-26.39-34.578-25.845l-1.04.02-.425.006z" opacity=".067"/><path d="M712.258 454.065c-29.677.344-67.67 12.962-82.978 27.668-8.303 8.453-17.057 17-24.468 25.438-2.833 4.588 4.872 6.852 14.073 6.143 17.748-.33 34.226 1.027 52.954-.567 30.967-2.868 65.542-17.15 76.16-31.558 12.677-15.53-3.853-28.026-35.742-27.123z" opacity=".067"/><path d="M712.568 453.712c-29.58.293-67.633 12.82-83.427 27.474-8.614 8.673-17.46 17.413-25.107 26.062-2.94 4.728 4.938 7.173 14.51 6.417 17.796-.33 34.39 1.022 53.13-.55 30.436-2.868 64.4-16.546 76.037-30.675 13.357-14.684.81-27.732-27.573-28.648-2.44-.108-4.97-.134-7.57-.08z" opacity=".067"/><path d="M712.893 453.343c-29.986.317-68.462 12.974-84.47 27.824-8.65 8.707-17.51 17.465-25.2 26.158-2.99 4.88 5.022 7.474 14.962 6.71 17.87-.337 34.433 1.035 53.306-.566 31.138-2.93 65.867-17.014 77.398-31.555 13.65-15.517-1.66-28.848-32.905-28.59-1.013-.014-2.04-.01-3.09.018z" opacity=".067"/><path d="M713.22 452.974c-30.152.317-68.84 12.976-85.21 27.9-8.823 8.814-17.844 17.746-25.55 26.512-3.125 5.047 5.077 7.81 15.368 7.017 17.934-.337 34.556 1.043 53.512-.58 31.135-2.926 65.898-16.92 77.882-31.425 13.376-14.775 1.285-27.947-26.808-29.273-2.943-.164-6.02-.214-9.195-.15z" opacity=".067"/><path d="M713.544 452.605c-30.695.322-70.156 13.305-86.54 28.508-8.683 8.77-17.693 17.6-25.355 26.35-3.177 5.2 5.16 8.11 15.82 7.308 18.004-.338 34.67 1.055 53.72-.594 31.465-2.96 66.656-17.12 78.78-31.79 13.524-14.93 1.322-28.312-27.15-29.613-2.94-.19-6.07-.228-9.276-.168z" opacity=".067"/></g><g><path d="M702.424 460.14c0-30.638-24.836-55.476-55.472-55.476-30.623 0-55.452 24.817-55.473 55.437l-.002-.002v42.934c.018 6.952 5.656 12.578 12.614 12.578l.06-.002.003.002h42.82c30.625-.013 55.45-24.84 55.45-55.47z" fill="#005ba8"/><g fill="#0087d3"><path d="M662.353 419.43c-13.932 0-25.225 11.293-25.225 25.224v13.368h-13.313c-13.93 0-25.224 11.24-25.224 25.17 0 13.93 11.294 25.224 25.225 25.224 13.93 0 25.223-11.293 25.223-25.225V469.77H662.353c13.93 0 25.223-11.183 25.223-25.114 0-13.93-11.293-25.224-25.223-25.224zm-25.225 63.785c-.01 7.34-5.968 13.29-13.313 13.29-7.352 0-13.367-5.96-13.367-13.312 0-7.355 6.015-13.426 13.367-13.426h11.436c1.038 0 1.88.84 1.88 1.877v11.57h-.002zm25.224-25.193h-11.436c-1.04 0-1.88-.84-1.88-1.88v-11.51c.014-7.344 5.97-13.293 13.315-13.293 7.352 0 13.37 5.96 13.37 13.314 0 7.353-6.018 13.368-13.37 13.368z"/></g><path d="M117.454 62.118c0-30.81-24.975-55.788-55.784-55.788-30.794 0-55.762 24.956-55.783 55.747v-.002 43.174c.017 6.99 5.687 12.648 12.684 12.648l.06-.003.004.003h43.06c30.796-.013 55.76-24.98 55.76-55.78z" fill="url(#h)" transform="matrix(.994 0 0 .994 585.625 398.369)"/><path d="M637.14 458.036v-13.372c0-13.936 11.296-25.233 25.233-25.233 2.114 0 3.616.238 5.573.75 2.854.75 5.184 3.087 5.186 5.808 0 3.29-2.387 5.68-5.956 5.68-1.7 0-2.315-.324-4.804-.324-7.348 0-13.306 5.95-13.318 13.298v11.513c0 1.04.84 1.88 1.88 1.88h8.751c3.26 0 5.89 2.61 5.894 5.878 0 3.27-2.637 5.872-5.895 5.872h-10.63v13.43c0 13.936-11.298 25.233-25.233 25.233-2.114 0-3.616-.24-5.573-.75-2.855-.75-5.186-3.088-5.188-5.81 0-3.288 2.387-5.68 5.957-5.68 1.698 0 2.314.326 4.802.326 7.348 0 13.307-5.952 13.32-13.296v-11.574c0-1.038-.844-1.878-1.882-1.878h-8.75c-3.26 0-5.894-2.6-5.894-5.87 0-3.29 2.66-5.88 5.956-5.88h10.568z" fill="#fff"/><path transform="matrix(1.09 0 0 1.09 566.462 387.863)" d="M108.677 39.02a34.64 21.056 0 1 1-69.282 0 34.64 21.056 0 1 1 69.282 0z" sodipodi:ry="21.056" sodipodi:rx="34.641" sodipodi:cy="39.021" sodipodi:cx="74.036" sodipodi:type="arc" fill="url(#i)" stroke-width="3" stroke-linecap="round" stroke-linejoin="round"/><path transform="matrix(1.132 -.149 .095 1.654 556.672 330.287)" d="M41.433 99.133a11.547 15.283 0 1 1-23.094 0 11.547 15.283 0 1 1 23.093 0z" sodipodi:ry="15.283" sodipodi:rx="11.547" sodipodi:cy="99.133" sodipodi:cx="29.886" sodipodi:type="arc" fill="url(#j)" stroke-width="3" stroke-linecap="round" stroke-linejoin="round"/></g></g></svg>