<?xml version="1.0" encoding="UTF-8" standalone="no"?>
<!-- Created with Inkscape (http://www.inkscape.org/) -->
<svg
   xmlns:dc="http://purl.org/dc/elements/1.1/"
   xmlns:cc="http://web.resource.org/cc/"
   xmlns:rdf="http://www.w3.org/1999/02/22-rdf-syntax-ns#"
   xmlns:svg="http://www.w3.org/2000/svg"
   xmlns="http://www.w3.org/2000/svg"
   xmlns:xlink="http://www.w3.org/1999/xlink"
   xmlns:sodipodi="http://inkscape.sourceforge.net/DTD/sodipodi-0.dtd"
   xmlns:inkscape="http://www.inkscape.org/namespaces/inkscape"
   width="800"
   height="600"
   id="svg2"
   sodipodi:version="0.32"
   inkscape:version="0.43"
   version="1.0"
   sodipodi:docbase="/home/nicu/Desktop/w"
   sodipodi:docname="wb00.svg">
  <defs
     id="defs4">
    <linearGradient
       id="linearGradient2396">
      <stop
         style="stop-color:#ffffff;stop-opacity:1;"
         offset="0"
         id="stop2398" />
      <stop
         id="stop2404"
         offset="0.91082805"
         style="stop-color:#ffffff;stop-opacity:0.39269406;" />
      <stop
         style="stop-color:#ffffff;stop-opacity:0;"
         offset="1"
         id="stop2400" />
    </linearGradient>
    <linearGradient
       inkscape:collect="always"
       id="linearGradient4924">
      <stop
         style="stop-color:#ffffff;stop-opacity:1;"
         offset="0"
         id="stop4926" />
      <stop
         style="stop-color:#ffffff;stop-opacity:0;"
         offset="1"
         id="stop4928" />
    </linearGradient>
    <linearGradient
       inkscape:collect="always"
       id="linearGradient4912">
      <stop
         style="stop-color:#ffffff;stop-opacity:1;"
         offset="0"
         id="stop4914" />
      <stop
         style="stop-color:#ffffff;stop-opacity:0;"
         offset="1"
         id="stop4916" />
    </linearGradient>
    <linearGradient
       id="linearGradient2465">
      <stop
         id="stop2467"
         offset="0"
         style="stop-color:#000000;stop-opacity:0;" />
      <stop
         id="stop2469"
         offset="1"
         style="stop-color:#000000;stop-opacity:0.83944952;" />
    </linearGradient>
    <radialGradient
       inkscape:collect="always"
       xlink:href="#linearGradient2465"
       id="radialGradient1503"
       gradientUnits="userSpaceOnUse"
       gradientTransform="matrix(1.707572,-0.109598,9.364237e-2,1.458965,-36.34453,-27.07104)"
       cx="38.716007"
       cy="68.227913"
       fx="38.716007"
       fy="68.227913"
       r="55.783906" />
    <linearGradient
       inkscape:collect="always"
       xlink:href="#linearGradient4924"
       id="linearGradient1505"
       gradientUnits="userSpaceOnUse"
       x1="62.011631"
       y1="-13.723535"
       x2="61.416466"
       y2="60.077187" />
    <radialGradient
       inkscape:collect="always"
       xlink:href="#linearGradient4912"
       id="radialGradient1507"
       gradientUnits="userSpaceOnUse"
       gradientTransform="matrix(0.596194,-0.102338,0.194413,1.132601,-7.079915,-9.870304)"
       cx="30.565268"
       cy="99.902626"
       fx="30.565268"
       fy="99.902626"
       r="11.546879" />
    <radialGradient
       inkscape:collect="always"
       xlink:href="#linearGradient2396"
       id="radialGradient2402"
       cx="400.97214"
       cy="448.24524"
       fx="400.97214"
       fy="448.24524"
       r="194.28044"
       gradientTransform="matrix(1,5.71896e-7,1.111979e-6,0.347578,11.38919,288.1109)"
       gradientUnits="userSpaceOnUse" />
    <radialGradient
       inkscape:collect="always"
       xlink:href="#linearGradient1369"
       id="radialGradient2412"
       cx="497.12253"
       cy="511.39999"
       fx="497.12253"
       fy="511.39999"
       r="400"
       gradientTransform="matrix(1.226519,1.124328e-2,-8.337244e-3,0.909374,-99.22014,-15.36038)"
       gradientUnits="userSpaceOnUse" />
    <linearGradient
       id="linearGradient1369">
      <stop
         id="stop1372"
         offset="0"
         style="stop-color:#478ec1;stop-opacity:1;" />
      <stop
         id="stop1374"
         offset="1"
         style="stop-color:#003b64;stop-opacity:1;" />
    </linearGradient>
  </defs>
  <sodipodi:namedview
     id="base"
     pagecolor="#ffffff"
     bordercolor="#666666"
     borderopacity="1.0"
     inkscape:pageopacity="0.0"
     inkscape:pageshadow="2"
     inkscape:zoom="0.90333333"
     inkscape:cx="400"
     inkscape:cy="319.15315"
     inkscape:document-units="px"
     inkscape:current-layer="layer1"
     inkscape:window-width="872"
     inkscape:window-height="723"
     inkscape:window-x="269"
     inkscape:window-y="24" />
  <metadata
     id="metadata7">
    <rdf:RDF>
      <cc:Work
         rdf:about="">
        <dc:format>image/svg+xml</dc:format>
        <dc:type
           rdf:resource="http://purl.org/dc/dcmitype/StillImage" />
      </cc:Work>
    </rdf:RDF>
  </metadata>
  <g
     inkscape:label="Layer 1"
     inkscape:groupmode="layer"
     id="layer1">
    <rect
       style="opacity:1;fill:url(#radialGradient2412);fill-opacity:1.0;stroke:none;stroke-width:3;stroke-linecap:round;stroke-linejoin:round;stroke-miterlimit:4;stroke-dasharray:none;stroke-dashoffset:0;stroke-opacity:1"
       id="rect1511"
       width="800"
       height="600"
       x="0"
       y="5.3290705e-15" />
    <path
       sodipodi:type="arc"
       style="opacity:0.35494881;fill:url(#radialGradient2402);fill-opacity:1;stroke:none;stroke-width:3;stroke-linecap:round;stroke-linejoin:round;stroke-miterlimit:4;stroke-dasharray:none;stroke-dashoffset:0;stroke-opacity:1"
       id="path2394"
       sodipodi:cx="412.36163"
       sodipodi:cy="443.91144"
       sodipodi:rx="194.28044"
       sodipodi:ry="67.527672"
       d="M 606.64207 443.91144 A 194.28044 67.527672 0 1 1  218.08119,443.91144 A 194.28044 67.527672 0 1 1  606.64207 443.91144 z"
       transform="matrix(0.774929,0,0,1.137205,335.7997,-28.10625)" />
    <g
       id="g5166"
       transform="matrix(1.019651,4.276379e-3,-0.497267,0.512883,651.8856,451.6227)">
      <path
         style="opacity:0.06666703;fill:#000000;fill-opacity:1"
         d="M 61.6875,11.40625 C 35.93934,12.075424 13.49992,35.052588 13.46875,60.84375 C 13.69121,76.374635 12.894535,92.041775 13.8125,107.5 C 16.099685,115.03097 25.580887,112.68325 31.375,112.90625 C 49.676679,111.76937 69.268887,116.2572 86.375,107.84375 C 108.99984,97.423639 120.81475,69.192051 112.3125,45.6875 C 105.31224,24.61935 84.006898,10.002371 61.6875,11.40625 z "
         id="path5168" />
      <path
         style="opacity:0.06666703;fill:#000000;fill-opacity:1"
         d="M 61.65625,10.6875 C 35.570165,11.346724 12.762075,34.72487 12.75,60.8125 C 12.998357,76.41406 12.127005,92.240987 13.125,107.71875 C 15.467758,115.54939 25.200318,113.58583 31.34375,113.625 C 49.760727,112.50685 69.513757,116.96202 86.6875,108.5 C 109.06393,98.161069 121.28436,70.374022 113.40625,46.8125 C 106.83827,24.754466 84.726289,9.2166255 61.65625,10.6875 z "
         id="path5173" />
      <path
         style="opacity:0.06666703;fill:#000000;fill-opacity:1"
         d="M 61.59375,9.96875 C 35.684622,10.651495 12.762668,33.505762 12.09375,59.4375 C 12.189919,75.579988 11.437887,91.872639 12.4375,107.9375 C 14.643686,115.60039 24.124391,114.72705 30.28125,114.34375 C 47.562494,113.29168 65.620313,117.01228 82.25,111.125 C 106.49137,102.82557 121.4113,74.968434 115.09375,50.25 C 109.89641,26.147486 86.14979,8.2792385 61.59375,9.96875 z "
         id="path5178" />
      <path
         style="opacity:0.06666703;fill:#000000;fill-opacity:1"
         d="M 61.5625,9.25 C 35.809454,9.9107063 12.752642,32.426771 11.46875,58.03125 C 11.21489,74.50658 11.017149,91.177689 11.5625,107.5625 C 13.243463,115.02006 21.935411,115.99282 28.25,115.0625 C 45.016114,114.19222 62.612636,117.07612 78.8125,113.03125 C 103.79861,106.38393 121.06201,79.515592 116.5625,54 C 113.0265,27.949744 87.913681,7.3504309 61.5625,9.25 z "
         id="path5183" />
      <path
         style="opacity:0.06666703;fill:#000000;fill-opacity:1"
         d="M 61.46875,8.5625 C 34.399447,9.2352427 10.595092,33.623712 10.625,60.71875 C 10.835795,76.441401 10.079375,92.362797 10.9375,107.96875 C 12.688873,115.09077 20.885458,116.85894 27.1875,115.75 C 43.57473,115.01114 60.238591,117.33858 76.40625,114.375 C 100.94093,109.19809 119.69079,84.487591 117.8125,59.34375 C 116.99788,32.272335 93.038143,8.7605125 66.00108,8.5160386 C 64.491234,8.4894261 62.976981,8.4657649 61.46875,8.5625 z "
         id="path5188" />
      <path
         style="opacity:0.06666703;fill:#000000;fill-opacity:1"
         d="M 61.46875,7.84375 C 33.898021,8.6374768 9.984979,33.094104 9.90625,60.6875 C 10.146301,76.458972 9.3070985,92.512365 10.25,108.125 C 12.103056,116.06281 21.262982,117.55055 28.1875,116.46875 C 45.124139,115.58515 62.506736,118.50024 79.09375,114.4375 C 103.80912,107.87872 121.41023,82.122537 118.3125,56.53125 C 115.9056,28.439112 89.70889,5.8580211 61.46875,7.84375 z "
         id="path5193" />
      <path
         style="opacity:0.06666703;fill:#000000;fill-opacity:1"
         d="M 61.40625,7.125 C 35.32722,7.9025489 11.987892,29.765718 9.5443502,55.772218 C 8.7266336,72.639835 9.2692137,89.583093 9.25,106.46875 C 9.7915287,114.03603 17.71118,118.45348 24.758928,117.1875 C 40.714838,116.80743 56.753947,117.98453 72.65625,116.53125 C 98.304221,113.03717 119.08813,89.538308 119.28125,63.53125 C 120.39517,37.769983 101.20493,13.357975 75.957114,8.2911692 C 71.242613,7.2904376 66.27766,6.8737315 61.40625,7.125 z "
         id="path5198" />
      <path
         style="opacity:0.06666703;fill:#000000;fill-opacity:1"
         d="M 61.375,6.3125 C 53.092093,6.7170474 44.904454,8.9911062 37.625,12.96875 C 33.863118,14.986581 30.307092,17.461952 27.160696,20.335953 C 24.211532,22.924662 21.553222,25.862019 19.205005,28.981743 C 16.999604,31.994271 15.079009,35.201645 13.524624,38.594192 C 10.314551,45.44286 8.6022815,52.962631 8.3797792,60.517468 C 8.2973005,68.164937 8.3665977,75.814292 8.34375,83.4625 C 8.3626029,90.924552 8.3059303,98.3884 8.3722891,105.84932 C 8.4988049,108.61287 9.5676146,111.36329 11.349295,113.44828 C 13.11545,115.50062 15.47033,117.03448 18.131529,117.64226 C 20.770123,118.24997 23.504466,117.91057 26.1875,118 C 39.208177,117.98562 52.22948,118.02883 65.249764,117.97827 C 72.761777,117.83014 80.248741,116.21403 87.100035,113.11425 C 91.248006,111.25759 95.164225,108.89196 98.75,106.09375 C 101.69502,103.67122 104.54832,101.04316 106.98633,98.077493 C 110.99885,93.441483 114.10016,88.019555 116.35307,82.312013 C 118.92745,75.673932 120.19432,68.542883 120.09375,61.425 C 120.00967,52.588609 117.79333,43.776781 113.6274,35.979565 C 111.01383,30.945974 107.55331,26.375857 103.53092,22.388803 C 99.146284,18.060218 94.07745,14.399398 88.487563,11.77439 C 80.115665,7.6643376 70.676544,5.8474507 61.375,6.3125 z "
         id="path5203" />
      <path
         style="opacity:0.06666703;fill:#000000;fill-opacity:1"
         d="M 61.34375,5.6875 C 35.03185,6.53701 11.472388,28.104002 8.2784905,54.207736 C 7.0048444,71.181434 8.0671062,88.265404 7.71875,105.28125 C 7.5492393,113.70239 15.954666,119.96853 24.044643,118.625 C 40.069119,118.27077 56.163746,119.34919 72.14552,118.06185 C 97.975416,114.879 119.42056,91.80783 120.61001,65.756046 C 122.74702,39.591241 104.36248,13.970177 78.99652,7.569029 C 73.268626,6.0018346 67.299565,5.3912668 61.34375,5.6875 z "
         id="path5208" />
      <path
         style="opacity:0.06666703;fill:#000000;fill-opacity:1"
         d="M 61.3125,4.96875 C 32.815679,5.8519642 7.9568593,30.657378 7.09375,59.15625 C 7.2398866,75.626036 6.3678894,92.347051 7.4375,108.6875 C 9.3829239,117.41327 19.140969,120.76022 27.1875,119.34375 C 44.257505,118.48701 61.747836,121.2706 78.53125,117.5 C 105.74834,111.10683 125.13878,82.624253 120.96875,54.8125 C 117.93193,26.432547 91.270604,3.60297 62.71875,4.90625 L 61.719736,4.9506506 L 61.3125,4.96875 z "
         id="path5213" />
      <path
         style="opacity:0.06666703;fill:#000000;fill-opacity:1"
         d="M 61.28125,4.25 C 32.620785,5.1610534 7.4602766,29.97277 6.4349209,58.65413 C 6.3305632,75.13743 5.8723958,91.803525 6.625,108.25 C 8.2023537,117.18126 17.872628,121.51494 26.1875,120.0625 C 43.210377,119.27574 60.590483,121.77768 77.375,118.53125 C 104.90735,112.71014 125.15303,84.695582 121.88021,56.628927 C 119.55302,26.365987 91.574143,2.2377615 61.28125,4.25 z "
         id="path5218" />
      <path
         style="opacity:0.06666703;fill:#000000;fill-opacity:1"
         d="M 61.25,3.5625 C 32.634569,4.3724976 7.3291833,29.006652 5.78125,57.59375 C 5.5797882,74.504565 5.2147655,91.549012 5.9375,108.40625 C 7.5451818,117.61198 17.554412,122.29548 26.1875,120.75 C 43.256983,119.96306 60.745955,122.45417 77.5625,119.25 C 104.57457,113.43182 124.7947,86.594202 122.78125,59.0625 C 121.92228,30.440299 97.310404,5.2037121 68.71875,3.65625 C 66.234938,3.4665419 63.73771,3.4378086 61.25,3.5625 z "
         id="path5223" />
      <path
         style="opacity:0.06666703;fill:#000000;fill-opacity:1"
         d="M 61.21875,2.84375 C 32.229554,3.7032716 6.6340844,28.595317 5.0625,57.5625 C 4.8598849,74.540882 4.4978298,91.619388 5.21875,108.5625 C 6.9226904,118.06563 17.203344,123.03619 26.1875,121.46875 C 43.323659,120.67085 60.801495,123.20029 77.71875,119.9375 C 105.35914,113.99709 125.94259,86.364275 123.43492,58.03337 C 122.07345,27.790149 94.493527,2.0287688 64.21875,2.78125 C 63.217508,2.7653738 62.218262,2.7809493 61.21875,2.84375 z "
         id="path5228" />
      <path
         style="opacity:0.06666703;fill:#000000;fill-opacity:1"
         d="M 61.1875,2.125 C 32.037778,2.9863406 6.2362826,27.882193 4.3802102,56.996073 C 4.1103356,74.184927 3.7571145,91.601967 4.53125,108.6875 C 6.2596584,118.51377 16.885741,123.80963 26.1875,122.1875 C 43.386558,121.38863 60.928524,123.9322 77.90625,120.625 C 105.54711,114.69071 126.24926,87.232624 124.21875,58.96875 C 123.29134,30.168616 99.007779,4.6887691 70.3125,2.34375 C 67.281957,2.0478953 64.22896,1.9759711 61.1875,2.125 z "
         id="path5233" />
      <path
         style="opacity:0.06666703;fill:#000000;fill-opacity:1"
         d="M 61.15625,1.40625 C 31.47837,2.2798229 5.2306559,27.813169 3.625,57.46875 C 3.448782,74.569384 3.0101912,91.789214 3.8125,108.84375 C 5.6345539,118.96581 16.535512,124.55143 26.1875,122.90625 C 43.451275,122.10078 61.050732,124.6709 78.09375,121.3125 C 106.02556,115.30969 126.98838,87.524919 124.9375,58.9375 C 124.0075,29.834873 99.417838,3.9510861 70.375,1.65625 C 67.322585,1.3094126 64.230393,1.2627318 61.15625,1.40625 z "
         id="path5238" />
    </g>
    <g
       id="g5303"
       transform="matrix(0.994427,0,0,0.994427,585.6251,398.3693)">
      <path
         d="M 117.45355,62.117603 C 117.45355,31.307008 92.478727,6.3301672 61.670308,6.3301672 C 30.876041,6.3301672 5.9082886,31.285784 5.887065,62.077363 L 5.8857367,62.074707 L 5.8857367,105.24527 L 5.887065,105.2488 C 5.9038638,112.23975 11.573853,117.89796 18.570802,117.89796 C 18.590699,117.89796 18.609713,117.8953 18.629607,117.8953 L 18.633593,117.89796 L 61.692863,117.89796 L 61.692863,117.89796 C 92.490222,117.88514 117.45355,92.918905 117.45355,62.117603 z "
         style="fill:#005ba8;fill-opacity:1"
         id="speech-bubble" />
      <g
         id="f-script"
         transform="matrix(0.428713,0,0,0.428725,7.244192,8.367853)"
         style="fill:#0087d3;fill-opacity:1">
        <path
           id="f-script-path"
           style="fill:#0087d3;fill-opacity:1"
           d="M 163.202,29.904 C 130.498,29.904 103.989,56.414 103.989,89.116 C 103.989,89.127 103.989,89.142 103.989,89.157 L 103.989,120.496 L 72.746,120.496 C 72.741,120.496 72.741,120.496 72.738,120.496 C 40.035,120.496 13.526,146.877 13.526,179.577 C 13.526,212.282 40.036,238.791 72.738,238.791 C 105.437,238.791 131.947,212.282 131.947,179.577 C 131.947,179.565 131.947,179.554 131.947,179.536 L 131.947,148.067 L 163.189,148.067 C 163.196,148.067 163.199,148.067 163.202,148.067 C 195.901,148.067 222.411,121.816 222.411,89.116 C 222.411,56.414 195.901,29.904 163.202,29.904 z M 103.989,179.633 C 103.964,196.864 89.979,210.833 72.738,210.833 C 55.479,210.833 41.358,196.841 41.358,179.582 C 41.358,162.317 55.479,148.066 72.738,148.066 C 72.752,148.066 72.766,148.066 72.779,148.066 L 99.558,148.066 C 99.567,148.066 99.572,148.066 99.578,148.066 C 102.016,148.066 103.993,150.039 103.993,152.473 C 103.993,152.478 103.99,152.478 103.99,152.484 L 103.99,179.633 L 103.989,179.633 z M 163.199,120.496 C 163.189,120.496 163.179,120.496 163.17,120.496 L 136.373,120.496 C 136.367,120.496 136.36,120.496 136.357,120.496 C 133.919,120.496 131.947,118.524 131.947,116.084 L 131.947,116.083 L 131.947,89.065 C 131.976,71.824 145.957,57.86 163.199,57.86 C 180.458,57.86 194.582,71.853 194.582,89.115 C 194.582,106.375 180.458,120.496 163.199,120.496 z " />
      </g>
      <path
         id="path1590"
         style="fill:url(#radialGradient1503);fill-opacity:1"
         d="M 117.45355,62.117603 C 117.45355,31.307008 92.478727,6.3301672 61.670308,6.3301672 C 30.876041,6.3301672 5.9082886,31.285784 5.887065,62.077363 L 5.8857367,62.074707 L 5.8857367,105.24527 L 5.887065,105.2488 C 5.9038638,112.23975 11.573853,117.89796 18.570802,117.89796 C 18.590699,117.89796 18.609713,117.8953 18.629607,117.8953 L 18.633593,117.89796 L 61.692863,117.89796 L 61.692863,117.89796 C 92.490222,117.88514 117.45355,92.918905 117.45355,62.117603 z " />
      <path
         id="blue-inifity-connectors"
         style="fill:#ffffff"
         d="M 51.82565,60.027512 L 51.82565,46.59126 C 51.82565,46.585261 51.82565,46.578829 51.82565,46.573684 C 51.82565,32.553514 63.19041,21.18801 77.211058,21.18801 C 79.337904,21.18801 80.84912,21.427667 82.817771,21.942992 C 85.688863,22.695839 88.033501,25.04782 88.034778,27.785661 C 88.03607,31.095422 85.633563,33.501424 82.043086,33.501424 C 80.33252,33.501424 79.714317,33.173878 77.209766,33.173878 C 69.817892,33.173878 63.824046,39.160599 63.811619,46.552246 L 63.811619,58.135112 L 63.811619,58.135548 C 63.811619,59.181635 64.657041,60.027077 65.702244,60.027077 C 65.703531,60.027077 65.706532,60.027077 65.709101,60.027077 L 74.507158,60.027077 C 77.785959,60.027077 80.433693,62.652166 80.436267,65.939627 C 80.436267,69.228375 77.784676,71.847458 74.507158,71.847458 L 63.811619,71.847458 L 63.811619,85.339012 C 63.811619,85.346726 63.811619,85.351444 63.811619,85.359163 C 63.811619,99.378046 52.446428,110.74312 38.427916,110.74312 C 36.300643,110.74312 34.789426,110.50347 32.820774,109.98771 C 29.949683,109.23529 27.604191,106.88202 27.602903,104.14504 C 27.602903,100.83614 30.003702,98.429274 33.595892,98.429274 C 35.304743,98.429274 35.924663,98.757258 38.427916,98.757258 C 45.819792,98.757258 51.815362,92.770109 51.826933,85.381032 C 51.826933,85.381032 51.826933,73.739423 51.826933,73.737284 C 51.826933,72.693335 50.979366,71.847889 49.934168,71.847889 C 49.932876,71.847889 49.931589,71.847889 49.92945,71.847889 L 41.131812,71.847889 C 37.85216,71.847889 35.202276,69.23138 35.202276,65.941771 C 35.201422,62.633728 37.879596,60.027938 41.193978,60.027938 L 51.82565,60.027938 L 51.82565,60.027512 z " />
      <path
         transform="matrix(1.096774,0,0,1.096774,-19.27898,-10.56852)"
         d="M 108.67651 39.021111 A 34.640636 21.056074 0 1 1  39.395237,39.021111 A 34.640636 21.056074 0 1 1  108.67651 39.021111 z"
         sodipodi:ry="21.056074"
         sodipodi:rx="34.640636"
         sodipodi:cy="39.021111"
         sodipodi:cx="74.035873"
         id="path3346"
         style="fill:url(#linearGradient1505);fill-opacity:1;stroke:none;stroke-width:3;stroke-linecap:round;stroke-linejoin:round;stroke-miterlimit:4;stroke-dasharray:none;stroke-dashoffset:0;stroke-opacity:1"
         sodipodi:type="arc" />
      <path
         transform="matrix(1.139498,-0.150456,9.626483e-2,1.663815,-29.12846,-68.49345)"
         d="M 41.432919 99.132805 A 11.546879 15.282634 0 1 1  18.339161,99.132805 A 11.546879 15.282634 0 1 1  41.432919 99.132805 z"
         sodipodi:ry="15.282634"
         sodipodi:rx="11.546879"
         sodipodi:cy="99.132805"
         sodipodi:cx="29.88604"
         id="path4225"
         style="fill:url(#radialGradient1507);fill-opacity:1;stroke:none;stroke-width:3;stroke-linecap:round;stroke-linejoin:round;stroke-miterlimit:4;stroke-dasharray:none;stroke-dashoffset:0;stroke-opacity:1"
         sodipodi:type="arc" />
    </g>
  </g>
</svg>
